<?xml version="1.0" standalone="no"?>
<!DOCTYPE svg PUBLIC "-//W3C//DTD SVG 20010904//EN"
 "http://www.w3.org/TR/2001/REC-SVG-20010904/DTD/svg10.dtd">
<svg version="1.0" xmlns="http://www.w3.org/2000/svg"
 width="650.000000pt" height="288.000000pt" viewBox="0 0 650.000000 288.000000"
 preserveAspectRatio="xMidYMid meet">

<g transform="translate(0.000000,288.000000) scale(0.100000,-0.100000)"
fill="#000000" stroke="none">
<path d="M710 2193 c0 -8 -328 -1467 -336 -1495 -4 -15 1 -18 29 -18 l34 0 53
243 c29 133 57 252 61 265 8 22 11 22 173 22 147 0 166 -2 174 -17 5 -10 33
-129 63 -265 l54 -248 33 0 c17 0 32 2 32 4 0 2 -76 342 -170 755 -93 414
-170 754 -170 756 0 3 -7 5 -15 5 -8 0 -15 -3 -15 -7z m90 -537 c38 -175 70
-325 70 -332 0 -11 -28 -14 -145 -14 -80 0 -145 3 -145 8 -1 15 143 662 146
659 2 -2 35 -146 74 -321z"/>
<path d="M4116 1452 c-93 -411 -171 -753 -173 -759 -4 -9 6 -13 30 -13 l35 0
21 92 c12 51 38 170 59 263 l38 170 172 3 c95 1 172 1 172 0 0 -2 27 -120 58
-263 l58 -260 32 -3 c18 -2 32 1 32 6 0 10 -327 1463 -336 1495 -3 9 -11 17
-17 17 -8 0 -74 -274 -181 -748z m259 193 c36 -165 68 -308 71 -317 5 -17 -7
-18 -146 -18 -140 0 -152 1 -148 18 2 9 36 160 74 335 42 194 72 311 76 300 4
-10 37 -153 73 -318z"/>
<path d="M1360 1435 l0 -755 30 0 30 0 0 662 c0 364 3 658 6 655 4 -4 136
-300 293 -659 l287 -653 29 0 30 0 0 750 0 750 -30 0 -30 0 -5 -647 -5 -648
-279 638 c-154 350 -283 643 -289 650 -5 6 -22 12 -38 12 l-29 0 0 -755z"/>
<path d="M2470 1435 l0 -755 35 0 35 0 0 755 0 755 -35 0 -35 0 0 -755z"/>
<path d="M2947 2183 c-4 -3 -7 -343 -7 -755 l0 -748 35 0 35 0 2 656 3 656
119 -284 c66 -155 131 -308 144 -338 l24 -55 17 35 c10 19 76 174 147 343
l129 309 3 -661 2 -661 30 0 30 0 0 756 0 755 -32 -3 -33 -3 -144 -343 c-79
-188 -147 -339 -151 -335 -4 4 -67 150 -140 323 -73 173 -138 325 -143 338
-10 21 -54 31 -70 15z"/>
<path d="M4940 1435 l0 -755 215 0 215 0 0 50 0 50 -185 0 -185 0 0 705 0 705
-30 0 -30 0 0 -755z"/>
<path d="M5695 2178 c-3 -7 -4 -346 -3 -753 l3 -740 218 -3 217 -2 0 50 0 50
-185 0 -185 0 0 310 0 310 175 0 175 0 0 45 0 45 -175 0 -175 0 0 300 0 300
180 0 180 0 0 50 0 50 -210 0 c-159 0 -212 -3 -215 -12z"/>
</g>
</svg>
